<?xml version="1.0" standalone="no"?>
<!DOCTYPE svg PUBLIC "-//W3C//DTD SVG 20010904//EN"
 "http://www.w3.org/TR/2001/REC-SVG-20010904/DTD/svg10.dtd">
<svg version="1.0" xmlns="http://www.w3.org/2000/svg"
 width="1000.000000pt" height="1000.000000pt" viewBox="0 0 1000.000000 1000.000000"
 preserveAspectRatio="xMidYMid meet">

<g transform="translate(0.000000,1000.000000) scale(0.100000,-0.100000)"
fill="#000000" stroke="none">
<path d="M4598 9470 c-405 -47 -739 -140 -1053 -295 -155 -77 -354 -199 -491
-300 -157 -118 -319 -306 -397 -461 -86 -171 -83 -375 9 -564 41 -83 60 -108
153 -201 234 -234 456 -358 2176 -1220 1147 -575 1473 -750 1804 -966 396
-259 636 -488 834 -795 86 -133 125 -218 194 -423 35 -104 60 -174 57 -155 -7
41 -93 312 -123 388 -26 65 -100 214 -159 317 -141 247 -375 486 -722 737
-174 125 -381 251 -725 441 -210 116 -1325 681 -1435 727 -89 38 -107 52 -60
46 37 -5 386 5 1060 29 395 15 606 23 1105 45 121 5 398 14 615 20 469 13 600
19 600 30 0 17 -63 21 -475 30 -236 5 -518 11 -625 14 -107 3 -438 10 -735 16
-297 5 -601 12 -675 15 -74 3 -261 8 -415 11 -345 8 -422 18 -210 28 83 4 186
9 230 11 142 8 419 15 915 26 267 5 654 14 860 19 206 5 528 13 715 16 321 7
364 11 349 35 -7 13 -355 22 -1709 44 -537 9 -964 25 -1230 45 -137 11 -259
20 -269 20 -11 0 -17 3 -13 6 3 3 77 8 164 10 87 2 244 6 348 9 105 3 390 10
635 15 856 18 946 20 1065 25 66 2 275 7 465 10 455 7 538 13 498 36 -25 14
-188 19 -1228 39 -942 19 -1708 42 -1863 56 -99 9 -93 24 10 24 49 0 181 4
293 10 233 11 1430 37 2115 45 484 6 558 10 552 28 -6 20 -64 25 -417 36 -190
6 -532 18 -760 26 -228 8 -613 19 -855 25 -583 14 -935 29 -993 44 -43 11 -27
13 173 19 395 12 1125 26 1920 37 429 6 804 13 833 16 53 6 66 16 35 29 -25
10 -323 22 -973 40 -311 9 -702 20 -870 25 -168 5 -381 12 -475 15 -310 9
-630 28 -640 36 -5 5 40 9 105 9 63 0 198 4 300 10 290 15 838 28 1675 41 424
6 774 15 779 20 16 14 -45 31 -144 40 -52 4 -284 12 -515 18 -1117 29 -2219
71 -2233 86 -12 11 1051 41 1993 55 374 6 696 13 715 16 39 5 57 18 40 29 -19
12 -214 23 -590 35 -195 6 -575 17 -845 25 -645 20 -1164 44 -1245 59 -72 13
-48 14 1170 35 305 6 627 12 715 15 88 3 271 9 408 12 136 4 247 11 247 15 0
29 -66 37 -415 49 -154 5 -478 17 -720 25 -550 19 -1311 54 -1390 64 -111 14
-24 17 1420 51 452 11 907 28 913 35 12 12 -24 35 -61 39 -23 3 -238 12 -477
21 -239 8 -489 17 -555 20 -166 7 -514 22 -939 40 -198 8 -362 17 -364 20 -3
3 10 5 29 5 19 0 212 7 429 15 217 8 577 20 800 25 223 6 504 15 625 20 121 5
233 10 248 10 18 0 27 5 25 12 -10 29 -99 39 -498 53 -617 22 -892 35 -1515
71 -171 10 -159 23 20 24 88 0 268 5 400 10 271 11 1154 40 1227 40 34 0 48 4
48 14 0 7 -8 16 -17 19 -105 33 -145 39 -328 47 -429 20 -976 54 -1330 83
l-150 13 379 7 c209 4 532 7 719 7 399 0 401 1 159 79 -231 74 -416 116 -676
152 -160 22 -636 34 -768 19z"/>
<path d="M2552 8303 c-59 -152 -76 -291 -48 -415 56 -251 255 -484 593 -694
256 -160 910 -503 1898 -997 1471 -735 1807 -924 2170 -1222 109 -90 268 -251
356 -360 159 -200 310 -491 370 -713 11 -42 22 -79 25 -81 7 -7 5 2 -21 105
-89 361 -290 703 -584 994 -159 158 -284 260 -471 386 -377 254 -725 442
-2045 1101 -1473 737 -1677 847 -1925 1044 -171 135 -267 257 -317 402 -25 73
-28 96 -28 207 0 105 4 136 24 193 22 66 25 106 3 50z"/>
<path d="M2465 8184 c-42 -94 -56 -155 -62 -259 -9 -164 27 -297 122 -452 58
-93 251 -291 370 -378 97 -72 406 -258 570 -345 66 -34 125 -66 130 -70 36
-27 751 -393 1500 -768 484 -243 995 -503 1135 -578 577 -308 850 -494 1121
-764 272 -270 456 -575 535 -888 13 -52 24 -111 25 -131 0 -20 4 -45 9 -56 6
-13 7 1 4 40 -32 372 -265 815 -606 1151 -274 271 -627 510 -1183 804 -55 29
-129 69 -165 88 -36 19 -560 284 -1165 587 -1598 802 -1834 934 -2080 1167
-117 111 -175 187 -231 303 -91 187 -97 349 -20 543 31 77 24 82 -9 6z"/>
<path d="M2344 7923 c-25 -84 -30 -260 -10 -347 77 -329 298 -573 776 -858
330 -196 911 -501 1865 -979 1370 -687 1682 -857 2022 -1106 166 -121 214
-161 342 -286 197 -192 315 -357 426 -590 65 -137 123 -318 139 -432 2 -16 2
-1 0 35 -6 132 -71 335 -170 532 -181 361 -442 639 -876 932 -387 261 -800
482 -2253 1204 -1351 672 -1762 912 -2012 1175 -89 94 -145 176 -187 275 -64
149 -82 306 -52 437 19 78 13 83 -10 8z"/>
<path d="M2264 7734 c-35 -158 -5 -393 68 -539 102 -202 287 -393 559 -576
291 -195 900 -519 2289 -1217 1022 -513 1286 -655 1630 -875 234 -151 379
-268 567 -458 226 -230 374 -470 449 -727 21 -75 31 -122 57 -282 3 -17 5 -14
6 13 2 72 -30 240 -69 362 -138 423 -454 807 -935 1136 -363 248 -746 454
-2190 1179 -1038 521 -1178 593 -1495 775 -353 202 -562 356 -696 513 -152
178 -222 342 -231 543 -4 76 -2 134 7 168 7 29 10 54 7 57 -3 3 -13 -29 -23
-72z"/>
<path d="M2205 7623 c-14 -38 -22 -221 -13 -311 14 -150 76 -320 159 -444 63
-94 229 -259 357 -355 215 -161 353 -243 967 -573 210 -113 1008 -521 1465
-750 1419 -709 1840 -962 2204 -1324 285 -283 454 -607 504 -966 l11 -75 -5
90 c-17 340 -207 729 -507 1033 -199 202 -391 351 -688 535 -292 180 -775 434
-1974 1037 -1175 591 -1532 783 -1835 985 -85 57 -192 133 -237 169 -295 239
-440 551 -405 876 10 89 9 103 -3 73z"/>
<path d="M2142 7415 c-7 -32 -12 -104 -12 -159 1 -182 27 -299 100 -451 182
-375 545 -637 1705 -1232 198 -102 432 -222 520 -268 88 -45 453 -230 810
-410 1039 -524 1204 -614 1554 -847 282 -189 568 -446 714 -643 157 -211 251
-451 267 -685 l8 -115 -3 145 c-2 126 -6 158 -32 245 -41 135 -82 231 -152
352 -81 141 -172 255 -326 409 -157 157 -266 245 -485 391 -332 221 -541 337
-1345 743 -1631 824 -1855 939 -2142 1099 -451 251 -688 413 -877 599 -97 96
-155 176 -205 284 -52 112 -68 162 -86 271 -18 109 -19 173 -4 251 5 31 9 62
6 69 -2 6 -9 -15 -15 -48z"/>
<path d="M2086 7157 c-10 -81 -1 -191 25 -310 54 -247 179 -447 407 -654 306
-276 796 -549 2802 -1560 294 -149 585 -296 645 -328 697 -366 1087 -625 1361
-906 160 -165 257 -304 332 -474 63 -145 77 -216 77 -397 0 -107 3 -151 10
-140 5 9 10 89 9 177 0 134 -4 174 -22 243 -88 327 -315 635 -683 928 -155
124 -426 305 -624 417 -289 162 -835 445 -1730 894 -1441 722 -1836 946 -2168
1223 -205 172 -338 368 -394 579 -18 69 -27 135 -32 236 -6 136 -7 138 -15 72z"/>
<path d="M2051 6939 c-2 -67 20 -243 39 -319 107 -418 395 -714 1065 -1092
384 -217 950 -513 1950 -1018 1098 -555 1310 -670 1680 -915 186 -123 279
-194 403 -304 234 -211 390 -435 458 -657 25 -81 28 -103 28 -256 1 -187 14
-185 23 3 5 96 2 133 -16 217 -114 534 -607 989 -1671 1545 -80 42 -210 110
-290 151 -80 42 -388 198 -685 347 -297 149 -612 309 -700 354 -88 45 -254
131 -370 190 -1237 636 -1600 895 -1785 1270 -60 123 -88 221 -111 390 -9 72
-17 114 -18 94z"/>
<path d="M2041 6661 c-1 -13 6 -71 15 -129 49 -332 207 -590 527 -858 256
-215 749 -494 1952 -1104 1427 -724 1744 -890 2024 -1062 147 -91 317 -206
451 -308 384 -292 607 -643 611 -962 1 -62 2 -68 10 -43 14 42 3 191 -21 285
-23 89 -45 145 -97 245 -155 299 -507 614 -1023 917 -380 223 -665 372 -1965
1028 -978 494 -1421 732 -1715 924 -332 216 -535 422 -650 659 -53 109 -72
175 -100 332 -10 55 -18 89 -19 76z"/>
<path d="M2054 6335 c7 -153 86 -357 206 -535 137 -202 373 -408 691 -601 401
-245 843 -481 1834 -984 1369 -694 1651 -849 2032 -1112 409 -284 638 -549
708 -822 22 -88 23 -259 1 -335 -25 -85 -11 -81 16 5 19 62 23 95 22 199 -1
108 -5 136 -29 210 -72 221 -191 388 -434 608 -291 262 -679 504 -1406 877
-126 65 -234 121 -240 126 -5 4 -307 157 -670 339 -816 411 -1082 549 -1455
755 -490 271 -710 420 -906 611 -203 199 -310 395 -359 659 l-15 80 4 -80z"/>
<path d="M2062 6150 c0 -14 2 -19 5 -12 2 6 2 18 0 25 -3 6 -5 1 -5 -13z"/>
<path d="M2071 6100 c-1 -54 41 -206 83 -299 180 -398 479 -659 1241 -1083
226 -126 280 -155 695 -371 195 -101 445 -232 555 -289 110 -58 371 -192 580
-298 209 -106 385 -196 390 -200 6 -4 69 -38 140 -75 743 -388 1132 -636 1388
-885 130 -126 194 -210 246 -321 79 -170 92 -334 39 -484 -14 -38 -28 -79 -31
-90 -4 -11 7 9 23 43 46 96 63 174 63 287 0 86 -4 113 -32 195 -38 111 -73
178 -147 277 -216 289 -597 566 -1304 945 -397 214 -608 323 -1555 803 -790
401 -954 489 -1441 777 -273 161 -413 266 -579 433 -174 175 -286 362 -326
547 -23 109 -27 122 -28 88z"/>
<path d="M2130 5768 c0 -4 5 -31 11 -60 18 -80 68 -192 136 -300 247 -393 639
-673 1728 -1238 99 -51 293 -152 430 -225 138 -73 354 -185 480 -250 678 -348
1354 -710 1600 -858 242 -145 515 -346 612 -451 169 -182 233 -321 233 -505 0
-103 -18 -188 -56 -264 -32 -62 -25 -73 9 -13 55 98 72 171 72 306 0 105 -4
136 -23 190 -86 245 -286 458 -676 719 -283 190 -803 476 -1656 909 -190 96
-424 216 -520 267 -245 129 -372 195 -625 325 -274 141 -667 360 -874 487
-472 290 -743 572 -852 888 -16 44 -28 77 -29 73z"/>
<path d="M2228 5400 c126 -370 429 -690 965 -1018 230 -141 700 -405 1004
-563 76 -40 188 -99 248 -131 61 -33 259 -134 440 -225 182 -92 346 -175 365
-184 35 -18 34 -18 -150 -19 -202 0 -573 -12 -1110 -35 -839 -36 -1285 -52
-1685 -60 -148 -3 -290 -8 -315 -12 -40 -5 -42 -6 -21 -14 32 -13 226 -18
1081 -29 1347 -19 2188 -45 2166 -68 -19 -18 -1714 -69 -2608 -78 -321 -3
-594 -8 -607 -10 -19 -4 -22 -8 -11 -14 29 -18 191 -25 945 -40 995 -20 1684
-38 1890 -49 99 -6 231 -13 294 -16 63 -3 116 -7 118 -9 11 -10 -519 -30
-1237 -46 -228 -5 -755 -16 -1170 -25 -415 -10 -762 -19 -770 -22 -12 -3 -13
-5 0 -13 25 -16 125 -21 610 -30 462 -9 1975 -54 2155 -65 50 -2 145 -7 213
-10 172 -8 194 -20 52 -29 -133 -7 -754 -21 -1725 -37 -1002 -16 -1220 -23
-1217 -34 6 -23 56 -26 887 -45 237 -6 626 -17 865 -25 239 -8 584 -20 765
-25 427 -13 572 -21 525 -31 -72 -16 -405 -29 -1060 -43 -371 -9 -760 -18
-865 -21 -104 -3 -338 -6 -520 -7 -181 0 -377 -4 -435 -7 -94 -6 -102 -8 -77
-19 37 -16 298 -27 1162 -52 385 -11 792 -22 905 -25 193 -6 437 -16 733 -31
211 -11 125 -26 -202 -35 -374 -10 -1142 -26 -1871 -39 -311 -6 -574 -13 -584
-16 -47 -15 26 -27 203 -35 102 -4 296 -13 431 -19 261 -11 624 -25 910 -35
96 -3 308 -10 470 -15 670 -22 782 -28 759 -40 -8 -4 -333 -12 -724 -19 -1504
-25 -1946 -38 -1952 -57 -8 -24 -3 -25 632 -44 448 -14 1538 -57 1795 -71 118
-7 226 -12 240 -11 17 0 20 -2 10 -7 -26 -14 -521 -31 -1295 -46 -998 -19
-1249 -25 -1255 -31 -11 -11 28 -23 95 -28 91 -8 405 -22 885 -41 212 -8 489
-19 615 -25 127 -5 354 -15 505 -20 366 -15 452 -21 418 -30 -15 -5 -86 -9
-158 -9 -72 -1 -136 -4 -143 -6 -7 -2 -129 -6 -272 -9 -1176 -26 -1735 -44
-1735 -56 0 -20 79 -30 295 -40 127 -5 273 -12 325 -15 52 -3 205 -10 340 -15
837 -33 1354 -61 1367 -73 4 -5 -418 -14 -1017 -23 -228 -4 -418 -8 -421 -10
-3 -2 -129 -4 -280 -5 -325 -2 -374 -5 -359 -24 23 -28 134 -40 560 -60 69 -3
197 -10 285 -15 177 -11 379 -22 860 -46 541 -27 475 -36 -405 -54 -877 -18
-1015 -22 -1024 -30 -4 -5 0 -11 10 -14 123 -37 217 -46 839 -81 154 -8 341
-19 415 -25 74 -5 226 -15 338 -21 111 -7 201 -13 199 -15 -1 -2 -75 -6 -162
-9 -427 -14 -752 -25 -970 -31 -132 -4 -251 -10 -265 -14 -23 -7 -21 -9 30
-33 156 -70 570 -177 855 -221 368 -57 814 -38 1175 50 563 137 1014 398 1322
764 136 162 195 358 163 541 -34 200 -168 373 -445 580 -255 190 -619 394
-1685 944 -264 136 -554 287 -645 335 -91 48 -246 129 -345 180 -393 203 -759
403 -995 543 -523 311 -830 607 -931 897 -12 36 -26 69 -31 75 -4 5 5 -29 20
-75z"/>
<path d="M7629 2141 c-29 -65 -42 -102 -37 -106 3 -3 17 26 33 65 29 73 32
106 4 41z"/>
</g>
</svg>
