<?xml version="1.0" standalone="no"?>
<!DOCTYPE svg PUBLIC "-//W3C//DTD SVG 20010904//EN"
 "http://www.w3.org/TR/2001/REC-SVG-20010904/DTD/svg10.dtd">
<svg version="1.0" xmlns="http://www.w3.org/2000/svg"
 width="1024.000000pt" height="1536.000000pt" viewBox="0 0 1024.000000 1536.000000"
 preserveAspectRatio="xMidYMid meet">

<g transform="translate(0.000000,1536.000000) scale(0.100000,-0.100000)"
fill="#000000" stroke="none">
<path d="M6708 14273 l-4 -738 -26 -98 c-82 -299 -266 -530 -604 -759 -181
-123 -281 -178 -786 -427 -731 -362 -960 -504 -1238 -769 -457 -435 -667 -928
-620 -1462 22 -258 80 -456 193 -659 l35 -63 -53 -107 c-59 -118 -104 -252
-132 -386 -28 -140 -25 -453 6 -599 108 -510 439 -931 1021 -1296 167 -105
299 -179 630 -350 572 -296 791 -422 1026 -591 146 -105 328 -263 427 -371
l80 -88 -28 -42 c-41 -63 -264 -283 -381 -375 -223 -176 -447 -321 -949 -611
-415 -240 -541 -320 -770 -491 -485 -362 -775 -770 -877 -1234 -23 -101 -23
-110 -23 -867 l0 -765 22 -42 c59 -110 193 -153 309 -99 67 31 100 76 133 183
70 222 213 427 477 682 279 269 545 451 1204 821 316 178 503 290 645 388 515
352 855 768 980 1198 75 258 70 618 -11 874 -35 112 -75 204 -132 308 l-50 91
38 73 c158 301 215 686 154 1038 -8 47 -32 137 -54 201 -150 451 -485 822
-1043 1157 -189 113 -324 185 -742 395 -181 92 -388 198 -458 237 -164 89
-441 272 -577 380 -114 90 -310 277 -310 295 0 15 141 167 232 251 230 212
495 388 989 660 463 254 644 364 844 514 202 151 366 311 486 472 176 238 284
496 324 778 12 89 15 327 15 1568 l0 1462 -199 0 -200 0 -3 -737z m-33 -2228
c-45 -276 -165 -503 -380 -720 -222 -224 -430 -363 -1040 -697 -460 -252 -627
-354 -845 -519 -140 -105 -351 -289 -408 -355 -48 -56 -51 -54 -78 36 -79 268
-64 566 39 818 124 301 439 625 849 873 134 82 400 219 593 307 664 303 959
476 1220 715 l60 54 3 -206 c2 -154 -1 -231 -13 -306z m-2596 -3248 c172 -167
373 -313 651 -474 169 -98 265 -149 685 -363 541 -276 809 -439 1044 -635 297
-248 455 -499 507 -803 18 -105 15 -267 -6 -372 -17 -80 -60 -220 -68 -220 -4
0 -66 58 -137 128 -270 264 -546 446 -1155 762 -671 347 -785 411 -970 537
-354 244 -573 501 -670 791 -56 166 -76 388 -49 538 14 78 50 214 57 214 3 0
53 -46 111 -103z m2875 -3759 c102 -263 84 -558 -51 -833 -80 -162 -165 -279
-317 -431 -237 -237 -443 -379 -997 -687 -589 -328 -831 -484 -1124 -728 -110
-92 -281 -262 -354 -351 l-46 -58 -3 228 c-4 360 29 545 134 760 105 213 257
396 504 606 209 179 424 316 1050 671 478 272 749 470 1020 746 80 81 147 148
150 148 3 1 18 -32 34 -71z"/>
</g>
</svg>
