<?xml version="1.0" standalone="no"?>
<!DOCTYPE svg PUBLIC "-//W3C//DTD SVG 20010904//EN"
 "http://www.w3.org/TR/2001/REC-SVG-20010904/DTD/svg10.dtd">
<svg version="1.0" xmlns="http://www.w3.org/2000/svg"
 width="1024.000000pt" height="1536.000000pt" viewBox="0 0 1024.000000 1536.000000"
 preserveAspectRatio="xMidYMid meet">

<g transform="translate(0.000000,1536.000000) scale(0.100000,-0.100000)"
fill="#000000" stroke="none">
<path d="M4855 14063 c-110 -9 -314 -37 -430 -59 -340 -63 -792 -214 -1025
-341 -126 -68 -250 -145 -250 -155 0 -5 -5 -6 -10 -3 -6 3 -13 -1 -16 -9 -3
-9 -10 -14 -14 -11 -5 3 -13 -3 -19 -12 -5 -10 -12 -16 -14 -13 -6 7 -157
-101 -157 -112 0 -5 -4 -7 -9 -3 -5 3 -17 -5 -25 -17 -9 -12 -16 -18 -16 -13
-1 6 -9 0 -19 -12 -10 -12 -21 -20 -24 -17 -2 3 -14 -6 -25 -20 -10 -14 -22
-23 -24 -20 -3 2 -19 -11 -36 -31 -17 -19 -35 -35 -40 -35 -5 0 -30 -22 -56
-50 -26 -27 -50 -50 -54 -50 -10 0 -172 -163 -169 -170 1 -3 -17 -23 -41 -44
-23 -21 -40 -41 -38 -43 3 -3 -11 -18 -30 -35 -19 -16 -32 -34 -29 -38 3 -4
-1 -10 -9 -13 -19 -8 -147 -178 -239 -318 -478 -728 -656 -1625 -502 -2524 87
-507 301 -1018 593 -1418 193 -264 465 -562 645 -706 37 -30 67 -58 67 -62 0
-3 -35 -33 -77 -64 -107 -79 -367 -343 -490 -497 -360 -449 -595 -959 -702
-1518 -45 -238 -56 -371 -55 -680 1 -319 12 -448 59 -685 119 -591 319 -1016
713 -1515 104 -131 414 -436 552 -544 570 -442 1204 -691 1943 -762 304 -29
685 -9 992 52 907 180 1642 644 2212 1397 465 613 707 1379 680 2147 -7 200
-18 306 -52 505 -88 513 -373 1102 -762 1571 -95 116 -322 343 -443 444 -47
39 -86 75 -88 80 -3 9 45 60 51 54 2 -3 18 11 35 31 17 19 36 35 41 35 5 0 31
24 57 53 26 28 44 45 39 37 -4 -8 54 46 129 120 75 74 136 137 136 140 0 3 31
39 70 80 38 41 68 75 66 77 -1 2 17 24 40 50 24 25 41 50 38 55 -3 4 -1 8 4 8
13 0 92 106 85 114 -4 3 -2 6 4 6 13 0 74 86 66 94 -3 3 -1 6 5 6 6 0 31 34
56 75 25 41 43 75 40 75 -2 0 3 9 13 20 26 27 154 286 207 417 102 255 172
507 213 773 26 167 27 192 27 545 0 303 -3 394 -18 500 -44 316 -121 609 -228
865 -50 119 -177 370 -187 370 -4 0 -8 6 -8 13 0 17 -160 271 -195 308 -14 16
-23 29 -20 29 4 1 -4 10 -17 20 -13 11 -19 20 -15 20 5 1 -1 9 -13 19 -12 10
-20 21 -17 24 3 2 -6 14 -20 25 -14 10 -23 22 -20 24 3 3 -9 17 -25 31 -16 13
-28 27 -25 30 3 2 -11 18 -31 36 -20 17 -32 31 -28 31 4 0 -57 65 -136 144
-80 80 -147 144 -151 143 -3 -1 -21 15 -39 36 -19 21 -35 36 -37 34 -2 -2 -27
18 -55 44 -29 27 -56 46 -61 43 -4 -3 -8 -1 -8 4 0 13 -106 92 -114 85 -3 -4
-6 -2 -6 4 0 12 -90 78 -90 66 0 -4 -5 0 -11 10 -6 9 -14 15 -20 12 -5 -4 -9
-2 -9 3 0 28 -395 238 -602 321 -477 189 -929 274 -1446 269 -108 -1 -215 -3
-237 -5z"/>
</g>
</svg>
