<?xml version="1.0" encoding="UTF-8" standalone="no"?>
<svg xmlns="http://www.w3.org/2000/svg" viewBox="0 0 147 147" width="147" height="147">
  <path d="M 56.979199999999935 54.949200000000076 L 24.272499999999923 20.600600000000043 L 26.888099999999895 18.287900000000093 z" fill="rgb(236,28,36)" />
  <path d="M 58.08919999999995 54.21920000000006 L 27.562599999999975 17.942700000000002 L 29.833699999999908 16.125300000000095 z" fill="rgb(235,28,36)" />
  <path d="M 59.029199999999946 53.52920000000006 L 30.31869999999992 15.799300000000017 L 32.67689999999993 14.095000000000027 z" fill="rgb(234,28,36)" />
  <path d="M 59.98919999999998 52.88920000000007 L 33.164999999999964 13.795600000000036 L 35.60379999999998 12.209600000000137 z" fill="rgb(233,27,37)" />
  <path d="M 60.98919999999998 52.29920000000004 L 36.11500000000001 11.936799999999948 L 38.62919999999997 10.471699999999942 z" fill="rgb(232,27,37)" />
  <path d="M 62.019199999999955 51.76920000000007 L 39.156099999999924 10.2342000000001 L 41.73789999999997 8.895200000000045 z" fill="rgb(232,27,37)" />
  <path d="M 63.079200000000014 51.27920000000006 L 42.281799999999976 8.673000000000116 L 44.92599999999993 7.46140000000014 z" fill="rgb(230,27,37)" />
  <path d="M 64.16919999999993 50.84920000000005 L 45.48689999999999 7.273200000000145 L 48.18829999999997 6.192900000000066 z" fill="rgb(229,27,37)" />
  <path d="M 65.27919999999995 50.47920000000005 L 48.757499999999936 6.0400000000000205 L 51.50829999999996 5.0936000000000945 z" fill="rgb(228,27,37)" />
  <path d="M 66.40919999999994 50.159200000000055 L 52.08839999999992 4.962100000000078 L 54.88209999999992 4.152200000000107 z" fill="rgb(228,26,37)" />
  <path d="M 67.54920000000004 49.899200000000064 L 55.46309999999994 4.053400000000124 L 58.293199999999956 3.381300000000124 z" fill="rgb(227,26,38)" />
  <path d="M 68.7091999999999 49.68920000000003 L 58.88769999999994 3.306500000000028 L 61.74769999999995 2.7735000000000127 z" fill="rgb(225,26,38)" />
  <path d="M 69.88919999999996 49.54920000000004 L 62.355699999999956 2.7401000000000977 L 65.2378 2.3488000000000966 z" fill="rgb(225,26,38)" />
  <path d="M 71.06920000000002 49.45920000000007 L 65.84059999999988 2.3367999999999824 L 68.7396 2.0871999999999957 z" fill="rgb(224,26,38)" />
  <path d="M 72.25919999999996 49.42920000000004 L 69.34979999999996 2.1078999999999724 L 72.25659999999993 2.0 z" fill="rgb(223,26,38)" />
  <path d="M 74.63919999999996 49.43920000000003 L 74.05419999999992 2.032100000000014 L 76.96359999999993 2.0672000000000708 z" fill="rgb(222,25,38)" />
  <path d="M 76.12919999999997 49.45920000000007 L 77.87119999999993 2.0794000000001347 L 80.77539999999999 2.2588000000001216 z" fill="rgb(221,25,38)" />
  <path d="M 77.31920000000002 49.52920000000006 L 81.38429999999994 2.292400000000157 L 84.27549999999997 2.6135000000001583 z" fill="rgb(220,25,38)" />
  <path d="M 78.48919999999998 49.659200000000055 L 84.86699999999996 2.6784999999999854 L 87.7387 3.141300000000115 z" fill="rgb(219,25,39)" />
  <path d="M 79.65919999999994 49.84920000000005 L 88.33409999999992 3.237700000000075 L 91.1810999999999 3.84090000000009 z" fill="rgb(218,25,39)" />
  <path d="M 80.80920000000003 50.09920000000005 L 91.7616999999999 3.970000000000084 L 94.57489999999996 4.71100000000007 z" fill="rgb(217,25,39)" />
  <path d="M 81.93919999999991 50.399200000000064 L 95.14199999999994 4.862800000000107 L 97.91489999999988 5.741600000000176 z" fill="rgb(216,25,39)" />
  <path d="M 83.05920000000003 50.75920000000008 L 98.47979999999995 5.926100000000133 L 101.20719999999994 6.938800000000128 z" fill="rgb(215,24,39)" />
  <path d="M 84.14919999999995 51.17920000000004 L 101.75119999999993 7.156000000000063 L 104.4253 8.302599999999984 z" fill="rgb(215,24,39)" />
  <path d="M 85.2091999999999 51.649200000000064 L 104.95099999999991 8.543800000000147 L 107.56529999999998 9.819100000000162 z" fill="rgb(214,24,39)" />
  <path d="M 86.24919999999997 52.169200000000046 L 108.08139999999992 10.084299999999985 L 110.63069999999993 11.486999999999966 z" fill="rgb(212,24,39)" />
  <path d="M 87.25919999999996 52.74920000000003 L 111.12979999999993 11.786199999999951 L 113.60759999999993 13.312399999999968 z" fill="rgb(212,24,40)" />
  <path d="M 88.23919999999998 53.369200000000035 L 114.09229999999991 13.626900000000035 L 116.49079999999992 15.272700000000043 z" fill="rgb(211,24,39)" />
  <path d="M 89.17919999999992 54.04920000000004 L 116.9511 15.62250000000006 L 119.26639999999998 17.384000000000015 z" fill="rgb(210,23,40)" />
  <path d="M 90.07920000000001 54.76920000000007 L 119.70229999999992 17.75170000000014 L 121.92919999999992 19.625000000000114 z" fill="rgb(209,23,40)" />
  <path d="M 90.9491999999999 55.53920000000005 L 122.35329999999988 20.019300000000044 L 124.48529999999994 21.999199999999973 z" fill="rgb(208,23,40)" />
  <path d="M 91.76919999999996 56.34920000000005 L 124.87889999999993 22.414000000000044 L 126.90949999999987 24.4953000000001 z" fill="rgb(207,23,40)" />
  <path d="M 92.54920000000004 57.199200000000076 L 127.28390000000002 24.929300000000183 L 129.21050000000002 27.10940000000022 z" fill="rgb(206,23,40)" />
  <path d="M 93.27919999999995 58.09920000000005 L 129.5556999999999 27.572600000000136 L 131.3730999999999 29.843700000000183 z" fill="rgb(205,23,40)" />
  <path d="M 93.96919999999989 59.02920000000006 L 131.69909999999993 30.318700000000035 L 133.40339999999992 32.676900000000046 z" fill="rgb(204,23,40)" />
  <path d="M 94.60919999999999 59.99920000000003 L 133.7027999999999 33.17500000000001 L 135.28879999999992 35.613800000000026 z" fill="rgb(203,22,40)" />
  <path d="M 95.1991999999999 60.99920000000003 L 135.56159999999988 36.12630000000007 L 137.0267 38.63920000000002 z" fill="rgb(202,22,40)" />
  <path d="M 95.73919999999998 62.02920000000006 L 137.27419999999995 39.16610000000014 L 138.6132 41.74790000000007 z" fill="rgb(202,22,40)" />
  <path d="M 96.21919999999989 63.08920000000006 L 138.82539999999995 42.29180000000014 L 140.03699999999992 44.936000000000206 z" fill="rgb(201,22,40)" />
  <path d="M 96.64919999999995 64.16920000000005 L 140.22389999999996 45.486900000000105 L 141.30549999999994 48.18830000000003 z" fill="rgb(199,22,41)" />
  <path d="M 97.01919999999996 65.27920000000006 L 141.45839999999987 48.758800000000065 L 142.4047999999999 51.50960000000009 z" fill="rgb(199,22,40)" />
  <path d="M 97.3392 66.40920000000006 L 142.53629999999998 52.08840000000009 L 143.34619999999995 54.88210000000004 z" fill="rgb(198,22,40)" />
  <path d="M 97.5992 67.54920000000004 L 143.44369999999992 55.463100000000054 L 144.11709999999994 58.29449999999997 z" fill="rgb(197,21,41)" />
  <path d="M 97.80920000000003 68.71920000000006 L 144.19189999999992 58.89770000000004 L 144.72489999999993 61.75770000000006 z" fill="rgb(196,21,41)" />
  <path d="M 97.9491999999999 69.88920000000007 L 144.75829999999996 62.35570000000007 L 145.14959999999996 65.2378000000001 z" fill="rgb(195,21,41)" />
  <path d="M 98.03919999999994 71.06920000000002 L 145.1615999999999 65.8406 L 145.4111999999999 68.7396 z" fill="rgb(194,21,41)" />
  <path d="M 98.06920000000002 72.25920000000008 L 145.39049999999997 69.34980000000007 L 145.49839999999995 72.25660000000005 z" fill="rgb(193,21,41)" />
  <path d="M 98.05920000000003 74.64920000000006 L 145.46629999999993 74.06550000000016 L 145.4312 76.97360000000015 z" fill="rgb(193,21,41)" />
  <path d="M 98.04920000000004 76.13920000000007 L 145.42899999999997 77.88250000000005 L 145.2496 80.7854000000001 z" fill="rgb(193,21,41)" />
  <path d="M 97.96919999999989 77.31920000000002 L 145.20600000000002 81.38430000000005 L 144.8848999999999 84.2768000000001 z" fill="rgb(192,20,42)" />
  <path d="M 97.8392 78.49920000000003 L 144.81989999999985 84.87700000000012 L 144.35709999999995 87.75000000000017 z" fill="rgb(190,20,42)" />
  <path d="M 97.64919999999995 79.65920000000006 L 144.26069999999993 88.33540000000005 L 143.6574999999999 91.18110000000013 z" fill="rgb(190,20,42)" />
  <path d="M 97.40919999999994 80.80920000000003 L 143.5383999999999 91.76170000000002 L 142.7960999999999 94.57490000000007 z" fill="rgb(189,20,42)" />
  <path d="M 97.0992 81.94920000000008 L 142.63559999999995 95.1520000000001 L 141.75679999999988 97.92620000000016 z" fill="rgb(188,20,42)" />
  <path d="M 96.73919999999998 83.05920000000003 L 141.57229999999993 98.48110000000008 L 140.55959999999993 101.20720000000006 z" fill="rgb(187,20,42)" />
  <path d="M 96.31920000000002 84.14920000000006 L 140.34109999999998 101.75120000000004 L 139.19579999999996 104.4253 z" fill="rgb(187,19,42)" />
  <path d="M 95.85919999999999 85.21920000000006 L 138.96590000000003 104.96100000000007 L 137.6893 107.57530000000003 z" fill="rgb(185,19,42)" />
  <path d="M 95.32920000000001 86.25920000000008 L 137.41409999999996 108.09270000000004 L 136.01269999999988 110.64070000000004 z" fill="rgb(184,19,43)" />
  <path d="M 94.12919999999997 88.23920000000004 L 133.87149999999997 114.09230000000008 L 132.22699999999998 116.49079999999998 z" fill="rgb(184,19,43)" />
  <path d="M 92.72919999999988 90.08920000000006 L 129.74669999999992 119.7136000000001 L 127.87339999999995 121.93920000000008 z" fill="rgb(182,19,43)" />
  <path d="M 91.9591999999999 90.94920000000008 L 127.4790999999999 122.35330000000016 L 125.49789999999996 124.48530000000011 z" fill="rgb(181,18,43)" />
  <path d="M 91.14919999999995 91.76920000000007 L 125.08569999999997 124.87890000000004 L 123.0030999999999 126.91080000000011 z" fill="rgb(180,18,43)" />
  <path d="M 90.29920000000004 92.54920000000004 L 122.56909999999993 127.28390000000002 L 120.39029999999991 129.21180000000004 z" fill="rgb(179,18,43)" />
  <path d="M 89.39919999999995 93.28920000000005 L 119.92579999999987 129.5657000000001 L 117.65469999999993 131.38310000000013 z" fill="rgb(179,18,43)" />
  <path d="M 88.46919999999989 93.97920000000005 L 117.17969999999991 131.7104 L 114.8214999999999 133.41340000000008 z" fill="rgb(178,18,43)" />
  <path d="M 87.50919999999996 94.60920000000004 L 114.33339999999998 133.70280000000008 L 111.89459999999997 135.2901000000001 z" fill="rgb(177,18,43)" />
  <path d="M 86.50919999999996 95.19920000000008 L 111.38339999999994 135.56290000000007 L 108.86919999999998 137.02670000000006 z" fill="rgb(176,18,43)" />
  <path d="M 85.46919999999989 95.73920000000004 L 108.33229999999992 137.2742 L 105.75049999999999 138.61450000000008 z" fill="rgb(176,18,43)" />
  <path d="M 84.40919999999994 96.21920000000006 L 105.20659999999987 138.8254 L 102.56110000000001 140.0370000000001 z" fill="rgb(175,17,44)" />
  <path d="M 83.32920000000001 96.64920000000006 L 102.01149999999996 140.2252000000001 L 99.31009999999992 141.30550000000005 z" fill="rgb(174,17,44)" />
  <path d="M 82.21919999999989 97.02920000000006 L 98.7408999999999 141.4684000000001 L 95.98879999999997 142.41610000000009 z" fill="rgb(173,17,44)" />
  <path d="M 81.0892 97.34920000000005 L 95.40999999999997 142.5463000000001 L 92.61629999999991 143.35620000000011 z" fill="rgb(173,17,44)" />
  <path d="M 79.9491999999999 97.60920000000004 L 92.03529999999989 143.45500000000004 L 89.20519999999999 144.12710000000004 z" fill="rgb(171,17,44)" />
  <path d="M 78.78919999999994 97.80920000000003 L 88.61069999999995 144.19190000000003 L 85.75069999999994 144.72490000000005 z" fill="rgb(171,17,44)" />
  <path d="M 77.60919999999999 97.95920000000007 L 85.144 144.76830000000012 L 82.26059999999995 145.15960000000013 z" fill="rgb(170,16,44)" />
  <path d="M 76.42919999999992 98.04920000000004 L 81.65779999999995 145.17160000000007 L 78.75879999999995 145.42120000000006 z" fill="rgb(169,16,44)" />
  <path d="M 75.23919999999998 98.07920000000007 L 78.14859999999999 145.4018000000001 L 75.24180000000001 145.5084000000001 z" fill="rgb(168,16,44)" />
  <path d="M 72.85919999999999 98.05920000000003 L 73.44290000000001 145.46760000000006 L 70.53480000000002 145.43250000000006 z" fill="rgb(167,16,44)" />
  <path d="M 71.36919999999998 98.04920000000004 L 69.62720000000002 145.4290000000001 L 66.72299999999996 145.25090000000006 z" fill="rgb(167,16,44)" />
  <path d="M 70.17919999999992 97.97920000000005 L 66.11410000000001 145.21600000000007 L 63.22289999999998 144.89620000000008 z" fill="rgb(166,16,44)" />
  <path d="M 69.00919999999996 97.84920000000005 L 62.631399999999985 144.82990000000007 L 59.75839999999994 144.36710000000005 z" fill="rgb(165,16,44)" />
  <path d="M 67.8392 97.65920000000006 L 59.1629999999999 144.2707000000001 L 56.31729999999993 143.6688000000001 z" fill="rgb(165,16,44)" />
  <path d="M 66.68919999999991 97.40920000000006 L 55.73669999999993 143.53840000000008 L 52.92349999999993 142.7974000000001 z" fill="rgb(164,15,44)" />
  <path d="M 65.55920000000003 97.09920000000005 L 52.35640000000001 142.63560000000007 L 49.58349999999996 141.7568 z" fill="rgb(163,15,44)" />
  <path d="M 64.43919999999991 96.73920000000004 L 49.01859999999999 141.57360000000006 L 46.2912 140.55960000000005 z" fill="rgb(162,15,45)" />
  <path d="M 63.349199999999996 96.32920000000007 L 45.74719999999991 140.3524000000001 L 43.073099999999954 139.20580000000007 z" fill="rgb(161,15,45)" />
  <path d="M 62.279199999999946 95.85920000000004 L 42.537399999999934 138.9659000000001 L 39.92309999999992 137.68930000000006 z" fill="rgb(160,15,45)" />
  <path d="M 61.24919999999997 95.33920000000006 L 39.416999999999916 137.42540000000002 L 36.86769999999996 136.02270000000004 z" fill="rgb(160,15,45)" />
  <path d="M 60.23919999999998 94.75920000000008 L 36.368600000000015 135.72350000000017 L 33.89080000000001 134.19730000000015 z" fill="rgb(160,15,45)" />
  <path d="M 59.259199999999964 94.12920000000003 L 33.406099999999924 133.87280000000004 L 31.007599999999968 132.22700000000015 z" fill="rgb(158,14,45)" />
  <path d="M 58.31919999999997 93.45920000000007 L 30.54729999999995 131.88590000000016 L 28.23199999999997 130.1244000000001 z" fill="rgb(158,14,45)" />
  <path d="M 57.41919999999999 92.73920000000004 L 27.796100000000024 129.75670000000008 L 25.569199999999967 127.88340000000011 z" fill="rgb(157,14,45)" />
  <path d="M 56.549199999999985 91.96920000000006 L 25.145099999999957 127.48910000000006 L 23.01310000000001 125.50920000000013 z" fill="rgb(156,14,45)" />
  <path d="M 55.729199999999935 91.15920000000006 L 22.619499999999903 125.09440000000006 L 20.587599999999895 123.01310000000001 z" fill="rgb(155,14,45)" />
  <path d="M 54.94919999999996 90.29920000000004 L 20.21449999999993 122.56910000000005 L 18.287899999999922 120.39030000000002 z" fill="rgb(155,14,45)" />
  <path d="M 54.20919999999995 89.40920000000006 L 17.932699999999954 119.9371000000001 L 16.115299999999934 117.66470000000004 z" fill="rgb(153,14,45)" />
  <path d="M 53.529199999999946 88.47920000000005 L 15.799299999999903 117.18970000000007 L 14.094999999999914 114.83150000000006 z" fill="rgb(153,13,45)" />
  <path d="M 52.88919999999996 87.50920000000008 L 13.795599999999922 114.3334000000001 L 12.20959999999991 111.89460000000008 z" fill="rgb(152,13,45)" />
  <path d="M 52.299199999999985 86.50920000000008 L 11.936799999999948 111.38340000000017 L 10.471699999999942 108.86920000000009 z" fill="rgb(151,13,45)" />
  <path d="M 51.759199999999964 85.47920000000005 L 10.22419999999994 108.34230000000008 L 8.88519999999994 105.76050000000015 z" fill="rgb(151,13,46)" />
  <path d="M 51.279199999999946 84.41920000000005 L 8.672999999999888 105.21789999999999 L 7.461399999999912 102.57240000000002 z" fill="rgb(150,13,46)" />
  <path d="M 50.84919999999994 83.32920000000007 L 7.2731999999999175 102.01150000000013 L 6.192899999999895 99.31010000000009 z" fill="rgb(149,13,46)" />
  <path d="M 50.469199999999944 82.22920000000005 L 6.028699999999958 98.75090000000006 L 5.082299999999918 96.00010000000015 z" fill="rgb(148,13,46)" />
  <path d="M 50.15919999999994 81.09920000000005 L 4.962099999999907 95.42130000000003 L 4.15219999999988 92.62630000000007 z" fill="rgb(148,13,45)" />
  <path d="M 49.88919999999996 79.94920000000008 L 4.044699999999921 92.03530000000018 L 3.3712999999999056 89.20520000000005 z" fill="rgb(147,12,45)" />
  <path d="M 49.68919999999997 78.78920000000005 L 3.3064999999999714 88.61200000000008 L 2.7735000000000127 85.75070000000005 z" fill="rgb(146,12,45)" />
  <path d="M 49.53919999999994 77.61920000000003 L 2.7300999999999362 85.15400000000005 L 2.338799999999935 82.2706 z" fill="rgb(145,12,46)" />
  <path d="M 49.45919999999995 76.42920000000004 L 2.3367999999999256 81.65780000000007 L 2.087199999999939 78.75880000000006 z" fill="rgb(144,12,46)" />
  <path d="M 49.42919999999998 75.23920000000004 L 2.1065999999999576 78.14860000000004 L 2.0 75.24180000000007 z" fill="rgb(143,12,45)" />
  <path d="M 49.43919999999997 72.85920000000004 L 2.0307999999999424 73.44420000000008 L 2.067199999999957 70.53480000000008 z" fill="rgb(143,12,46)" />
  <path d="M 49.44919999999996 71.36920000000003 L 2.0693999999999733 69.62720000000007 L 2.2474999999999454 66.72300000000013 z" fill="rgb(143,12,46)" />
  <path d="M 49.529199999999946 70.18920000000003 L 2.2923999999999296 66.1241 L 2.612199999999916 63.23289999999997 z" fill="rgb(141,12,46)" />
  <path d="M 49.65919999999994 69.00920000000008 L 2.6784999999999854 62.6314000000001 L 3.1399999999999295 59.75840000000005 z" fill="rgb(141,11,46)" />
  <path d="M 49.84919999999994 67.83920000000006 L 3.2376999999999043 59.16300000000007 L 3.8408999999999196 56.3173000000001 z" fill="rgb(140,11,46)" />
  <path d="M 50.08919999999995 66.68920000000003 L 3.9599999999999227 55.73670000000004 L 4.700999999999908 52.92349999999999 z" fill="rgb(139,11,46)" />
  <path d="M 50.39919999999995 65.55920000000003 L 4.862799999999936 52.35640000000001 L 5.7415999999999485 49.58349999999996 z" fill="rgb(138,11,46)" />
  <path d="M 50.759199999999964 64.44920000000008 L 5.926099999999963 49.028600000000154 L 6.938799999999958 46.301200000000165 z" fill="rgb(137,11,45)" />
  <path d="M 51.16919999999999 63.34920000000005 L 7.145999999999958 45.74720000000008 L 8.292599999999993 43.073100000000125 z" fill="rgb(136,11,45)" />
  <path d="M 51.63919999999996 62.28920000000005 L 8.532499999999914 42.54870000000005 L 9.809099999999944 39.93310000000008 z" fill="rgb(136,11,45)" />
  <path d="M 52.16919999999999 61.24920000000003 L 10.08299999999997 39.41700000000009 L 11.485699999999952 36.867700000000184 z" fill="rgb(136,11,45)" />
  <path d="M 52.73919999999998 60.23920000000004 L 11.776200000000017 36.36860000000007 L 13.30110000000002 33.89080000000007 z" fill="rgb(135,10,45)" />
  <path d="M 53.36919999999998 59.25920000000008 L 13.625599999999963 33.407400000000166 L 15.271399999999971 31.00760000000014 z" fill="rgb(134,10,46)" />
  <path d="M 54.03919999999994 58.31920000000002 L 15.612499999999955 30.547300000000064 L 17.37399999999991 28.23199999999997 z" fill="rgb(133,10,45)" />
  <path d="M 54.769199999999955 57.419200000000046 L 17.751699999999914 27.796100000000138 L 19.623699999999985 25.569200000000023 z" fill="rgb(132,10,45)" />
  <path d="M 55.529199999999946 56.54920000000004 L 20.00929999999994 25.14510000000007 L 21.989199999999926 23.013100000000122 z" fill="rgb(132,10,45)" />
  <path d="M 56.34919999999994 55.93920000000003 L 22.41399999999993 22.830800000000067 L 24.077999999999918 21.20449999999994 z" fill="rgb(237,28,36)" />
</svg>