<?xml version="1.0" standalone="no"?>
<!DOCTYPE svg PUBLIC "-//W3C//DTD SVG 20010904//EN"
 "http://www.w3.org/TR/2001/REC-SVG-20010904/DTD/svg10.dtd">
<svg version="1.0" xmlns="http://www.w3.org/2000/svg"
 width="1300.000000pt" height="1300.000000pt" viewBox="0 0 1300.000000 1300.000000"
 preserveAspectRatio="xMidYMid meet">

<g transform="translate(0.000000,1300.000000) scale(0.100000,-0.100000)"
fill="#000000" stroke="none">
<path d="M7427 12018 c-6 -232 -21 -300 -102 -463 -127 -258 -281 -404 -771
-733 -244 -165 -379 -271 -534 -419 -382 -366 -578 -772 -621 -1288 -18 -216
13 -450 91 -679 l29 -86 -29 -86 c-70 -207 -100 -457 -81 -677 25 -291 119
-556 291 -815 167 -252 350 -425 725 -687 516 -361 619 -440 799 -615 152
-148 316 -353 316 -395 0 -9 -21 -49 -46 -88 -159 -246 -331 -410 -802 -767
-365 -275 -555 -446 -717 -640 -249 -299 -407 -655 -444 -1002 -7 -60 -11
-406 -11 -908 l0 -810 136 0 137 0 -7 77 c-9 105 9 311 34 403 28 101 115 277
186 377 179 249 391 444 884 818 366 277 540 428 681 591 222 257 355 501 428
785 44 171 55 258 55 434 -1 243 -39 456 -119 655 l-34 86 34 105 c81 249 112
533 84 764 -14 112 -67 325 -108 428 -119 298 -304 547 -571 767 -116 96 -179
141 -525 378 -516 353 -723 533 -882 764 -53 77 -54 71 23 173 161 217 329
372 729 675 313 237 462 369 593 525 189 225 325 497 376 750 32 163 36 265
36 1028 l0 767 -129 0 -128 0 -6 -192z m-37 -1416 c-42 -318 -222 -617 -529
-873 -53 -45 -186 -149 -296 -232 -361 -272 -586 -473 -753 -672 -41 -49 -78
-91 -82 -93 -24 -10 -43 174 -37 357 5 173 20 246 83 404 96 240 267 467 512
680 131 114 259 207 480 350 315 204 456 313 573 447 l54 61 3 -173 c2 -95 -2
-210 -8 -256z m-1502 -2791 c160 -175 346 -322 790 -625 151 -103 317 -220
370 -260 510 -387 724 -806 673 -1313 -18 -174 -15 -172 -101 -62 -185 236
-389 410 -910 774 -330 230 -440 316 -570 446 -237 236 -367 472 -416 753 -12
69 -15 131 -11 256 2 91 8 174 13 184 7 17 11 15 42 -20 19 -21 73 -81 120
-133z m1853 -3280 c17 -98 20 -152 16 -246 -9 -193 -40 -310 -137 -510 -141
-291 -349 -506 -860 -890 -466 -351 -686 -546 -869 -774 l-76 -95 -8 95 c-11
122 -2 339 19 459 51 300 193 568 435 824 110 116 275 256 568 479 135 103
293 227 351 275 146 121 329 306 435 441 104 132 94 136 126 -58z"/>
</g>
</svg>
