<?xml version="1.0" standalone="no"?>
<!DOCTYPE svg PUBLIC "-//W3C//DTD SVG 20010904//EN"
 "http://www.w3.org/TR/2001/REC-SVG-20010904/DTD/svg10.dtd">
<svg version="1.0" xmlns="http://www.w3.org/2000/svg"
 width="1024.000000pt" height="1024.000000pt" viewBox="0 0 1024.000000 1024.000000"
 preserveAspectRatio="xMidYMid meet">

<g transform="translate(0.000000,1024.000000) scale(0.100000,-0.100000)"
fill="#000000" stroke="none">
<path d="M5805 9866 c-16 -7 -41 -25 -55 -40 -23 -26 -24 -34 -31 -209 -6
-173 -8 -186 -36 -254 -40 -95 -83 -152 -198 -261 -146 -140 -262 -211 -720
-437 -502 -249 -650 -339 -881 -538 -258 -223 -428 -482 -500 -767 -25 -100
-26 -358 -1 -472 18 -83 61 -202 106 -286 l27 -54 -37 -72 c-147 -281 -155
-626 -19 -896 75 -150 128 -220 274 -365 147 -146 226 -207 411 -321 114 -70
489 -257 680 -339 146 -63 549 -264 655 -328 94 -56 293 -196 355 -250 l39
-34 -49 -53 c-118 -124 -372 -310 -663 -482 -791 -469 -856 -513 -1100 -752
-203 -198 -339 -423 -404 -666 -28 -106 -32 -309 -19 -894 11 -470 12 -490 33
-532 12 -24 33 -51 46 -60 87 -57 205 -31 256 56 18 29 22 58 27 180 5 137 7
148 36 205 159 307 495 584 1153 950 364 202 562 328 735 466 364 289 561 615
581 964 5 80 2 121 -14 205 -34 169 -68 257 -149 392 l-34 57 25 50 c38 73 71
166 91 251 21 93 22 294 1 401 -57 298 -266 576 -616 821 -167 117 -371 220
-862 438 -324 144 -537 255 -703 365 -117 78 -308 232 -303 245 5 13 109 103
203 177 191 149 387 274 784 500 431 246 557 333 739 510 224 219 341 432 386
702 14 83 15 161 5 700 -10 573 -12 608 -31 649 -38 81 -137 116 -223 78z
m-86 -1200 c1 -101 -3 -165 -15 -217 -18 -82 -75 -212 -125 -286 -41 -61 -205
-230 -284 -293 -136 -108 -362 -250 -680 -427 -309 -172 -574 -347 -754 -498
-55 -47 -102 -85 -105 -85 -10 0 -37 144 -42 227 -23 324 221 687 648 963 104
68 410 225 698 360 257 119 455 237 585 348 33 28 63 51 67 52 3 0 7 -65 7
-144z m-1928 -2442 c43 -47 172 -146 291 -225 150 -99 346 -202 618 -324 363
-162 410 -184 576 -271 432 -225 681 -451 776 -707 41 -110 50 -253 22 -368
-10 -44 -22 -79 -26 -79 -4 0 -35 24 -70 54 -90 76 -214 161 -374 256 -183
109 -378 203 -834 402 -576 252 -912 535 -1020 858 -27 82 -38 263 -20 341 23
104 23 104 61 63z m2316 -2606 c98 -285 37 -533 -192 -787 -172 -190 -393
-348 -820 -586 -559 -312 -772 -456 -1007 -683 l-96 -93 -8 58 c-4 31 -4 116
-1 188 9 192 51 314 174 504 63 98 233 276 348 366 124 97 349 241 585 375
369 211 553 325 712 442 107 79 256 205 271 229 16 26 21 24 34 -13z"/>
</g>
</svg>
